# xmcd
#
# Track frame offsets: 
#        150
#        19233
#        34558
#        45470
#        59458
#        75658
#        94508
#        109833
#        126388
#        163420
#        180983
#        194395
#
# Disc length: 2776 seconds
#
# Revision: 1
# Processed by: cddbd v1.5.2PL0 Copyright (c) Steve Scherf et al.
# Submitted via: ExactAudioCopy v0.95b4
#
DISCID=990ad60c
DTITLE=Kris Kristofferson - For The Good Times - The Best Of Kris Kris
DTITLE=tofferson CD1
DYEAR=2005
DGENRE=Country
TTITLE0=Me And Bobby Mc Gee
TTITLE1=For The Good Times
TTITLE2=Jesus Was A Capricorn (Owed To John Prine)
TTITLE3=Nobody Loves Anybody Anymore
TTITLE4=Casey's Last Ride
TTITLE5=Fallen Angel
TTITLE6=Stairway To The Bottom
TTITLE7=Easter Island
TTITLE8=Silver (The Hunger)
TTITLE9=It's Never Gonna Be The Same Again
TTITLE10=The Best Of All Possible Worlds
TTITLE11=Enough For You
EXTD=
EXTT0=
EXTT1=
EXTT2=
EXTT3=
EXTT4=
EXTT5=
EXTT6=
EXTT7=
EXTT8=
EXTT9=
EXTT10=
EXTT11=
PLAYORDER=
